C:\GBW_MyPrograms\PredSimResults\Vitruvian_man\IG_v14ms.mot
version=1
nRows=6
nColumns=35
inDegrees=yes
endheader
                time	         pelvis_tilt	           pelvis_tx	           pelvis_ty	       hip_flexion_r	        knee_angle_r	       ankle_angle_r	         mtp_angle_r	       hip_flexion_l	        knee_angle_l	       ankle_angle_l	         mtp_angle_l	    lumbar_extension	          arm_flex_r	          arm_flex_l	        elbow_flex_r	        elbow_flex_l	hamstrings_r/activation	bifemsh_r/activation	glut_max_r/activation	iliopsoas_r/activation	rect_fem_r/activation	  vasti_r/activation	gastroc_r/activation	 soleus_r/activation	tib_ant_r/activation	hamstrings_l/activation	bifemsh_l/activation	glut_max_l/activation	iliopsoas_l/activation	rect_fem_l/activation	  vasti_l/activation	gastroc_l/activation	 soleus_l/activation	tib_ant_l/activation	
          0.00000000	         -2.18859248	          0.00000000	          0.94822161	         27.46837646	         -0.58426029	          0.40860106	          0.24963252	        -21.11612887	         -7.22353701	          2.66837286	         22.23052454	        -10.02280982	         31.52649555	         31.52652936	        102.45645815	        102.03305874	          0.39858006	          0.05490844	          0.15413850	          0.05001603	          0.05003534	          0.05021808	          0.05066936	          0.05000799	          0.61538823	          0.09181896	          0.18513284	          0.05007593	          0.40276575	          0.05001376	          0.05001545	          0.29157707	          0.22638164	          0.05000779	
          0.01206473	         -2.99908541	          0.02314601	          0.94633138	         26.63019228	          0.18850985	         -1.62974579	          0.25217608	        -19.80353829	        -10.35995268	          1.05503288	         23.06044882	         -8.48185160	         31.29936850	         31.30131502	        105.00902721	        104.63129451	          0.36343827	          0.06019414	          0.18791470	          0.05001394	          0.05003291	          0.05017643	          0.05001226	          0.05000485	          0.78683187	          0.09006881	          0.15420313	          0.05005484	          0.33533908	          0.05001194	          0.05000884	          0.24276381	          0.18848258	          0.05000576	
          0.02412945	         -3.81178713	          0.04584189	          0.94542807	         25.90041380	          0.82212506	         -3.60235796	          0.19377695	        -18.08178412	        -14.02209398	         -1.12627378	         23.58474028	         -6.96457217	         30.65669612	         30.66898859	        107.23720337	        106.89631697	          0.33436460	          0.05058825	          0.22004783	          0.05001214	          0.05003397	          0.05039344	          0.05001299	          0.05000545	          0.88185238	          0.08260982	          0.13623564	          0.05002822	          0.27919967	          0.05000749	          0.05000383	          0.20212238	          0.15692815	          0.05001389	
          0.03619418	         -4.61584767	          0.06780539	          0.94561571	         25.32857025	          1.15310727	         -5.02558928	          0.14966659	        -16.00065471	        -18.09901663	         -3.66215131	         23.25168171	         -5.51756069	         29.59233608	         29.62147032	        109.13739501	        108.82745748	          0.30683129	          0.05050842	          0.24542261	          0.05001689	          0.05004413	          0.05036396	          0.05001264	          0.05000585	          0.93451502	          0.06879033	          0.11348640	          0.05001536	          0.23245867	          0.05000944	          0.05000290	          0.16828505	          0.13065640	          0.05003133	
          0.04825890	         -5.39233513	          0.08905357	          0.94682199	         24.86910402	          1.23265416	         -5.91954232	          0.11478200	        -13.68853651	        -22.41815986	         -6.21838132	         21.53242572	         -4.15815036	         28.09217860	         28.14202256	        110.72618465	        110.44546764	          0.28379303	          0.05027425	          0.27369166	          0.05001340	          0.05003732	          0.05082533	          0.05001539	          0.05000809	          0.96370059	          0.05728201	          0.09451305	          0.05001422	          0.19354305	          0.05001794	          0.05000388	          0.14011295	          0.10878300	          0.27867721	
          0.06032363	         -6.12514863	          0.10968048	          0.94881046	         24.47438236	          1.11413928	         -6.31866133	          0.07967680	        -11.30571986	        -26.71873683	         -7.86311183	         18.54718528	         -2.89040763	         26.17076638	         26.24254697	        112.02956967	        111.78066110	          0.25417319	          0.05029528	          0.28056510	          0.05002091	          0.05005868	          0.05086931	          0.05001857	          0.05000972	          0.97986832	          0.05001349	          0.07874869	          0.05001030	          0.16114367	          0.05020169	          0.05000426	          0.11665877	          0.09057190	          0.37484128	
